<svg xmlns="http://www.w3.org/2000/svg" viewBox="0 0 1492.48 409.62"><defs><style>.a{fill:#693b8f;}.b{fill:#fdfdfd;}</style></defs><path class="a" d="M1267.26,315.07l110.17.15c11.22,0,23.23-.2,32.47-6.57,14.83-10.23,16.21-31.23,16.13-49.25,0-34.33-.31-68.67-.47-103-.12-26.34,8.51-66.6-22.73-78.89-8-3.15-16.84-3.21-25.43-3.22l-95.91-.14c-4.61-3.9-.33-11.24,4-15.49L1298,46.2c2.2-2.19,4.52-4.45,7.48-5.41s6.44-.43,9.69-.64c10.3-.66,19.14-10.43,18.79-20.74S1324.09,0,1313.77,0s-19.74,9.26-20,19.58c-.08,3.27.62,6.68-.54,9.75-.87,2.3-2.68,4.09-4.43,5.81L1272.56,51c-1.37,1.34-2.84,2.74-4.71,3.15-2.57.56-5.09-.87-7.5-1.9a27.36,27.36,0,0,0-20.77-.25c-2.52,1-5.07,2.43-7.76,2.11s-4.94-2.37-6.91-4.32l-14.39-14.2c-1.92-1.9-3.91-3.89-4.84-6.44-1.17-3.19-.5-6.72-.68-10.12-.52-10.07-9.73-18.9-19.81-19s-19.47,8.54-20.2,18.6,7.32,20,17.32,21.31c3.74.5,7.64,0,11.24,1.11,3.86,1.24,6.84,4.27,9.65,7.19l13,13.51c1.65,1.71,3.4,3.65,3.51,6,.25,5.39-7.09,7.14-12.48,7l-72.88-1.31c-20.18-.36-44,1.08-55,18-6.31,9.69-6.48,22-6.45,33.57l.45,149.31c0,7.91.25,16.44,5,22.72,2.94,3.86,7.39,6.5,9.77,10.73,2.25,4,2.33,8.82,2.35,13.42l.2,48.41,62.51-42.17c6.25-4.21,12.63-8.49,19.86-10.61,6.69-2,13.78-2,20.75-2Zm121-168.34c8.33.1,15.33,7.22,15.11,15.38a15.24,15.24,0,1,1-15.11-15.38Zm-4.54,40.84c5.81-1.15,10.78,1.07,15.63,3.84l.16.05c.47,1,.89,2.09,1.39,3.1,3.55,7.14,2.92,14.23-2,18.71s-12.1,6.74-20.24,1.61C1370.22,206.45,1370.24,194.45,1383.75,187.57Zm18.62,59.16,2.23.47c0,2.33,0,4.67,0,7-8.63.05-17.25.17-25.87.13-7.75,0-7.19,1.35-7.11-7.07Zm-.53-15.75c5.51.12,1.93,4.74,2.74,7.22l-25.86.14c-7.18,0-7.18,0-7.19-7.08C1381.63,230.38,1391.74,230.77,1401.84,231Zm-.47,39.44c-8.79-.17-17.58-.13-26.37.05-3,.06-3.49-1.36-3.57-3.89-.1-2.82,1-3.78,3.75-3.67,4.47.18,9,0,13.43.06,4.31,0,8.63.11,12.94,0,2.72-.09,3.32,1.14,3.29,3.58S1404.48,270.48,1401.37,270.42Zm-.29-153.72c2.52,6.91.61,15.44-8.25,18.67-7.24,2.65-16.22-1.53-18.87-8.77s1.54-16.22,8.78-18.86C1391.6,104.5,1398.56,109.79,1401.08,116.7ZM1119.66,280.88c-11.62,0-19.83-5.1-24.65-15.67-.28-3.12-.8-6.24-.81-9.36q-.08-65.26,0-130.54c0-4.65,0-9.29.93-13.87a7.1,7.1,0,0,0,1.84-4.13c1.63-1.94,3.27-3.88,4.9-5.83,5.69-4.22,12.06-5.75,19.16-5.74q100.37.17,200.74.06c2,0,4,0,6,.06,14.27.69,23.19,10,23.21,24.6q.08,60.18,0,120.35c0,7.15-.08,14.3-.12,21.46-.14.58-.28,1.17-.41,1.76-4.61,12.11-13.66,16.87-26.29,16.85Q1221.89,280.7,1119.66,280.88Z"/><path class="b" d="M1492.28,312.15q.13-62.16,0-124.31c0-20.54-14.09-34.34-34.56-34.34a84,84,0,0,1-9-.07c-3.78-.43-4.66.88-4.65,4.63.14,41.27.05,82.54.09,123.81,0,11.65-2.73,22.43-10,31.68-10.11,12.87-23.43,19-39.86,19-67.56-.08-135.12,0-202.68-.08-4,0-5.13.53-4,4.87,3.9,14.83,16.42,24.83,32.08,24.84q85.37,0,170.73,0a12.92,12.92,0,0,1,7.84,2.33c11.38,7.78,22.84,15.44,34.29,23.11,10.73,7.19,21.48,14.35,33,22.06,0-15.31.07-29.62,0-43.92,0-2.88.67-4.07,3.73-5.08,12.57-4.12,20.23-12.84,22.45-26.06C1493,327.12,1492.26,319.62,1492.28,312.15Z"/><path class="b" d="M1313.4,139.44c-7,.22-14,.25-21,0-3.33-.13-5,.88-6.32,4q-10.65,25.78-21.76,51.38c-1.9,4.4-3.27,9.1-6.25,13.3a10.61,10.61,0,0,1-1.13-1.59c-8.75-21-17.55-42-26.15-63.05-1.28-3.12-2.92-4.13-6.27-4.1-19.46.17-38.93.09-58.4.09q-25.71,0-51.42,0c-2.52,0-4.92-.11-4,3.6-1.06,5.77-.12,11.6-.48,17.38-.2,3,1.07,3.63,3.77,3.58,7.82-.13,15.65.17,23.46-.13H1139l.32,0,.48.05.1,0,.39.06a5.08,5.08,0,0,1,.59.17l.31.11a3.19,3.19,0,0,1,.7.4l.29.26.2.22.07.09a1.85,1.85,0,0,1,.21.33,3.73,3.73,0,0,1,.35.81,5.66,5.66,0,0,1,.21.9s0,.07,0,.1a10.29,10.29,0,0,1,.11,1v.1c0,.12,0,.24,0,.36s0,.41,0,.62c-.25,24.29,0,48.59-.18,72.89,0,3.76,1.06,4.83,4.8,4.65a209.13,209.13,0,0,1,21,0c4.35.23,5.14-1.36,5.12-5.34-.17-24.46,0-48.93-.13-73.39,0-3.44.91-4.49,4.43-4.49,8.29,0,16.6.66,24.87-.41,2.18.32,3.87.88,4.91,3.35,10.74,25.56,21.68,51,32.41,76.6,1,2.51,2,3.66,4.91,3.59,7.65-.21,15.31-.18,23,0,2.74.07,4-.83,5.08-3.4,5.28-12.73,10.82-25.35,16.26-38,8.86-20.6,17.64-41.24,26.6-61.79C1317.92,140.25,1317.21,139.33,1313.4,139.44Z"/><path class="b" d="M159.31,330.92H117.88L41.44,192.32v138.6H0V104.78H41.44L117.88,243V104.78h41.43Z"/><path class="b" d="M232.2,330.92H190.77V104.78H232.2Z"/><path class="b" d="M386.14,266.73q0,31.72-15.19,48t-39.89,16.23h-66.4V104.78h61.77q44.77,0,44.78,59.09,0,16.41-4.12,27.72a43.44,43.44,0,0,1-13.38,19Q372,216.4,379.06,231T386.14,266.73Zm-53.28-95.2q0-21.89-19-21.88H306.1v44.13h7.72Q332.86,193.78,332.86,171.53Zm11.84,91.19q0-15-6.95-19.52t-23.16-4.56H306.1v47.42h9.26q17,0,23.16-5.84T344.7,262.72Z"/><path class="b" d="M501.24,330.92H410.39V104.78h90.85V154H451.82v38.3h46.59v49.24H451.82v40.12h49.42Z"/><path class="b" d="M668.24,217.85a146.57,146.57,0,0,1-6.18,42.68,131.19,131.19,0,0,1-16.86,36.11,89.22,89.22,0,0,1-25,25,54.91,54.91,0,0,1-30.5,9.3H528.49V104.78h61.25q14.93,0,29.08,8.57a87.73,87.73,0,0,1,25.23,23.71Q655.11,152.2,661.68,173A148.41,148.41,0,0,1,668.24,217.85Zm-43,0A96.09,96.09,0,0,0,622,192.32a64.86,64.86,0,0,0-9.26-20.24,44.15,44.15,0,0,0-14.55-13.32A38,38,0,0,0,579.45,154h-9.53V281.68h9.53a38.39,38.39,0,0,0,19-4.74,42.84,42.84,0,0,0,14.41-13.31A66.28,66.28,0,0,0,622,243.38,95.93,95.93,0,0,0,625.26,217.85Z"/><path class="b" d="M735.18,330.92H693.75V104.78h41.43Z"/><path class="b" d="M863.35,154H829.12v176.9H787.68V154h-34V104.78H863.35Z"/><path class="b" d="M1023.47,330.92H979.2l-10.29-39.39h-57.4L900.7,330.92h-44L918.2,104.78h45Zm-65.89-84.25-17.24-71.86-17.25,71.86Z"/></svg>